<svg xmlns="http://www.w3.org/2000/svg" viewBox="0 0 100 100">
  <defs>
    <style>
      .bone { fill: #f5f5f5; stroke: #333; stroke-width: 2; }
    </style>
  </defs>
  <path class="bone" d="M25,30 C20,30 15,35 15,40 C15,45 20,50 25,50 L35,50 L35,50 L65,50 L75,50 C80,50 85,45 85,40 C85,35 80,30 75,30 C70,30 65,35 65,40 L35,40 C35,35 30,30 25,30 Z M25,50 C20,50 15,55 15,60 C15,65 20,70 25,70 C30,70 35,65 35,60 L35,50 Z M75,50 C80,50 85,55 85,60 C85,65 80,70 75,70 C70,70 65,65 65,60 L65,50 Z"/>
</svg>
